<svg xmlns="http://www.w3.org/2000/svg" viewBox="0 0 24 24" fill="#F97316">
        <path fill-rule="evenodd" d="M12 2.25a.75.75 0 01.75.75v.75a.75.75 0 01-1.5 0v-.75A.75.75 0 0112 2.25zM7.5 12a4.5 4.5 0 119 0 4.5 4.5 0 01-9 0zM18.894 6.106a.75.75 0 010 1.06l-.75.75a.75.75 0 01-1.06-1.06l.75-.75a.75.75 0 011.06 0zM19.5 12a.75.75 0 01.75.75v.75a.75.75 0 01-1.5 0v-.75A.75.75 0 0119.5 12zM18.894 17.894a.75.75 0 011.06 0l.75.75a.75.75 0 01-1.06 1.06l-.75-.75a.75.75 0 010-1.06zM12 19.5a.75.75 0 01.75.75v.75a.75.75 0 01-1.5 0v-.75A.75.75 0 0112 19.5zM5.106 17.894a.75.75 0 010-1.06l.75-.75a.75.75 0 011.06 1.06l-.75.75a.75.75 0 01-1.06 0zM4.5 12a.75.75 0 01.75-.75h.75a.75.75 0 010 1.5H5.25A.75.75 0 014.5 12zM5.106 6.106a.75.75 0 011.06 0l.75.75a.75.75 0 01-1.06 1.06l-.75-.75a.75.75 0 010-1.06z" clip-rule="evenodd" />
    </svg>